<svg xmlns="http://www.w3.org/2000/svg" viewBox="0 0 600 280" width="600" height="280" font-family="-apple-system, BlinkMacSystemFont, 'Segoe UI', Roboto, Helvetica, Arial, sans-serif">
<defs><marker id="arrow" markerWidth="9" markerHeight="9" refX="7" refY="3" orient="auto" markerUnits="strokeWidth"><path d="M0,0 L7,3 L0,6 Z" fill="#64748b"/></marker></defs>
<rect x="40" y="24" width="200" height="52" rx="8" ry="8" fill="#dbeafe" stroke="#2563eb" stroke-width="1.5"/>
<text x="140" y="50" text-anchor="middle" dominant-baseline="central" font-size="14" font-weight="600" fill="#0f172a">Public corpus</text>
<rect x="40" y="114" width="200" height="52" rx="8" ry="8" fill="#f1f5f9" stroke="#94a3b8" stroke-width="1.5"/>
<text x="140" y="140" text-anchor="middle" dominant-baseline="central" font-size="14" font-weight="400" fill="#0f172a">System under test</text>
<rect x="40" y="204" width="200" height="52" rx="8" ry="8" fill="#f1f5f9" stroke="#94a3b8" stroke-width="1.5"/>
<text x="140" y="230" text-anchor="middle" dominant-baseline="central" font-size="14" font-weight="400" fill="#0f172a">Predictions</text>
<rect x="360" y="24" width="200" height="52" rx="8" ry="8" fill="#fee2e2" stroke="#dc2626" stroke-width="1.5"/>
<text x="460" y="50" text-anchor="middle" dominant-baseline="central" font-size="14" font-weight="600" fill="#0f172a">Answer key</text>
<rect x="360" y="114" width="200" height="52" rx="8" ry="8" fill="#f1f5f9" stroke="#94a3b8" stroke-width="1.5"/>
<text x="460" y="140" text-anchor="middle" dominant-baseline="central" font-size="14" font-weight="400" fill="#0f172a">Scorer</text>
<rect x="360" y="204" width="200" height="52" rx="8" ry="8" fill="#f1f5f9" stroke="#94a3b8" stroke-width="1.5"/>
<text x="460" y="230" text-anchor="middle" dominant-baseline="central" font-size="14" font-weight="400" fill="#0f172a">Scored results</text>
<line x1="140" y1="76" x2="140" y2="114" stroke="#64748b" stroke-width="2" marker-end="url(#arrow)"/>
<line x1="140" y1="166" x2="140" y2="204" stroke="#64748b" stroke-width="2" marker-end="url(#arrow)"/>
<line x1="460" y1="76" x2="460" y2="114" stroke="#64748b" stroke-width="2" marker-end="url(#arrow)"/>
<line x1="240" y1="230" x2="360" y2="156" stroke="#64748b" stroke-width="2" marker-end="url(#arrow)"/>
<line x1="460" y1="166" x2="460" y2="204" stroke="#64748b" stroke-width="2" marker-end="url(#arrow)"/>
</svg>
